# xmcd
#
# Track frame offsets: 
#        150
#        13070
#        20979
#        35649
#        45877
#        60797
#        75096
#        90355
#        105436
#        119794
#        134417
#        147812
#
# Disc length: 2145 seconds
#
# Revision: 2
# Processed by: cddbd v1.5.2PL0 Copyright (c) Steve Scherf et al.
# Submitted via: ExactAudioCopy v1.0b3
#
DISCID=8e085f0c
DTITLE=Johnny Cash - The Cash Collection [CD 3)
DYEAR=2011
DGENRE=Country
TTITLE0=That Old Wheel
TTITLE1=Guess Things Happen That Way
TTITLE2=Home Of The Blues
TTITLE3=A Thing Called Love
TTITLE4=Goin' By The Book
TTITLE5=I'll Go Somewhere And Sing My Songs Again
TTITLE6=The Hobo Song
TTITLE7=Letters From Home
TTITLE8=The Mystery Of Life
TTITLE9=Long Black Veil
TTITLE10=Water From The Wells Of Home
TTITLE11=Peace In The Valley
EXTD=
EXTT0=
EXTT1=
EXTT2=
EXTT3=
EXTT4=
EXTT5=
EXTT6=
EXTT7=
EXTT8=
EXTT9=
EXTT10=
EXTT11=
PLAYORDER=
